<?xml version="1.0" encoding="UTF-8" standalone="no"?>
<!-- Created with Inkscape (http://www.inkscape.org/) -->

<svg
   width="25.956039mm"
   height="8.7291842mm"
   viewBox="0 0 25.956039 8.7291842"
   version="1.1"
   id="svg5"
   xml:space="preserve"
   xmlns="http://www.w3.org/2000/svg"
   xmlns:svg="http://www.w3.org/2000/svg"><defs
     id="defs2"><rect
       x="92.793495"
       y="134.82816"
       width="121.08286"
       height="63.116653"
       id="rect358" /></defs><g
     id="layer1"
     transform="translate(0,-0.051366)"><g
       id="g4341"
       transform="translate(-17.978231,-10.422412)"
       style="fill:#ffffff"><g
         id="g4331"
         style="fill:#ffffff"><path
           id="text356"
           style="font-weight:bold;font-size:37.3333px;font-family:Arial;-inkscape-font-specification:'Arial Bold';text-align:center;text-anchor:middle;white-space:pre;shape-inside:url(#rect358);fill:#ffffff;fill-opacity:1;stroke-width:0.970004;stroke-linecap:round;stroke-opacity:0.2"
           d="m 40.179976,10.473779 c -0.751948,0 -1.429093,0.17573 -2.031399,0.527617 -0.598567,0.348098 -1.071635,0.849716 -1.419554,1.5043 -0.344174,0.650799 -0.516245,1.430265 -0.516245,2.338358 0,0.874041 0.16624,1.638304 0.499194,2.292883 0.336689,0.650802 0.804447,1.157599 1.403014,1.520838 0.598566,0.363236 1.296053,0.545187 2.092896,0.545187 0.729504,0 1.373217,-0.149642 1.930633,-0.448551 0.561152,-0.3027 1.000793,-0.720684 1.31878,-1.254189 0.31799,-0.537288 0.476975,-1.158129 0.476975,-1.8619 v -1.095026 h -3.55224 v 1.37356 h 1.782321 c -0.0054,0.326036 -0.08394,0.61405 -0.239261,0.86248 -0.157125,0.257294 -0.379601,0.457736 -0.66766,0.601513 -0.28432,0.143783 -0.617317,0.216009 -0.998906,0.216009 -0.463886,0 -0.862323,-0.111624 -1.195274,-0.334863 -0.332955,-0.223242 -0.588861,-0.53962 -0.76843,-0.948262 -0.175829,-0.412426 -0.264067,-0.902122 -0.264067,-1.469679 0,-0.571343 0.08824,-1.063452 0.264067,-1.47588 0.175829,-0.412423 0.428368,-0.730189 0.757575,-0.953428 0.329215,-0.223239 0.72376,-0.334863 1.183909,-0.334863 0.243168,0 0.465643,0.03231 0.66766,0.09663 0.202017,0.06432 0.379918,0.15694 0.5333,0.27802 0.157125,0.12108 0.286049,0.266914 0.387056,0.437184 0.10101,0.166483 0.173699,0.353618 0.218593,0.561722 h 1.835029 C 43.825567,13.006962 43.6947,12.602279 43.4852,12.239047 43.275703,11.875808 43.004768,11.561845 42.671814,11.296983 42.342603,11.032123 41.964511,10.829268 41.538033,10.689268 41.115296,10.545488 40.662572,10.473779 40.179976,10.473779 Z M 21.94698,10.610205 v 1.186489 h 1.322918 v 1.322919 H 21.94698 v 2.645832 h 1.322918 V 17.08836 H 21.94698 v 1.978176 h 1.807127 1.183905 c 0.856699,0 1.593446,-0.171931 2.21072,-0.516247 0.621008,-0.344318 1.097967,-0.832631 1.430918,-1.46451 0.332955,-0.635667 0.499712,-1.386623 0.499712,-2.253092 0,-0.862689 -0.168189,-1.609844 -0.504877,-2.241725 -0.332954,-0.631882 -0.808486,-1.120192 -1.425753,-1.46451 -0.613534,-0.344319 -1.34108,-0.516247 -2.182815,-0.516247 h -1.21181 z m 7.281728,0 v 1.560629 h 2.519226 v 6.895702 h 1.801441 v -6.895702 h 2.514057 v -1.560629 z m -5.474601,1.532206 h 1.09399 c 0.546191,0 0.996972,0.104021 1.352371,0.312125 0.359142,0.204321 0.624763,0.506882 0.796852,0.907956 0.175823,0.397291 0.264064,0.8875 0.264064,1.470195 0,0.582689 -0.08824,1.076186 -0.264064,1.481046 -0.172089,0.401073 -0.435768,0.70605 -0.791166,0.914154 -0.355402,0.204322 -0.808126,0.306443 -1.358057,0.306443 h -1.09399 z" /><path
           style="fill:#ffffff;fill-opacity:1;stroke-width:0.829;stroke-linecap:round;stroke-opacity:0.2"
           d="m 20.624064,15.765445 v 1.322917 h 1.322917 v -1.322917 z"
           id="path3862" /><path
           style="fill:#ffffff;fill-opacity:1;stroke-width:0.829;stroke-linecap:round;stroke-opacity:0.2"
           d="m 20.624064,11.796695 v 1.322917 h 1.322917 v -1.322917 z"
           id="path3864" /><path
           style="fill:#ffffff;fill-opacity:1;stroke-width:0.829;stroke-linecap:round;stroke-opacity:0.2"
           d="m 19.301148,10.473778 v 1.322917 h 1.322917 v -1.322917 z"
           id="path3866" /><path
           style="fill:#ffffff;fill-opacity:1;stroke-width:0.829;stroke-linecap:round;stroke-opacity:0.2"
           d="m 17.978231,13.119612 v 1.322917 h 1.322917 v -1.322917 z"
           id="path3868" /><path
           style="fill:#ffffff;fill-opacity:1;stroke-width:0.829;stroke-linecap:round;stroke-opacity:0.2"
           d="m 19.301148,14.442528 v 1.322917 h 1.322917 v -1.322917 z"
           id="path3870" /><path
           style="fill:#ffffff;fill-opacity:1;stroke-width:0.829;stroke-linecap:round;stroke-opacity:0.2"
           d="m 19.301148,17.088362 v 1.322917 h 1.322917 v -1.322917 z"
           id="path3872" /></g></g><text
       xml:space="preserve"
       style="font-style:normal;font-variant:normal;font-weight:bold;font-stretch:normal;font-size:3.52777px;font-family:Arial;-inkscape-font-specification:'Arial Bold';text-align:center;text-anchor:middle;fill:#094c82;fill-opacity:1;stroke-width:0.829;stroke-linecap:round;stroke-opacity:0.2"
       x="10.318749"
       y="17.727083"
       id="text4216"><tspan
         id="tspan4214"
         style="stroke-width:0.829"
         x="10.318749"
         y="17.727083"></tspan></text></g></svg>
